<svg xmlns="http://www.w3.org/2000/svg" viewBox="0 0 1100 650"><defs><linearGradient id="x" x2="1" y2="1"><stop stop-color="#03101d"/><stop offset="1" stop-color="#0a58ca"/></linearGradient></defs><rect width="1100" height="650" rx="20" fill="url(#x)"/><rect x="90" y="90" width="920" height="360" rx="15" fill="#071725" stroke="#00c6fb" stroke-width="3"/><path d="M130 120h840v260H130z" fill="#0a2b46"/><path d="M130 380h840v55H130z" fill="#06101a"/><g fill="#00c6fb" opacity=".9"><rect x="190" y="170" width="170" height="120" rx="8"/><rect x="390" y="150" width="170" height="140" rx="8"/><rect x="590" y="175" width="170" height="115" rx="8"/></g><g fill="#03101d"><path d="M205 185h140v90H205z"/><path d="M405 165h140v110H405z"/><path d="M605 190h140v90H605z"/></g><path d="M170 450h760l70 90H100z" fill="#020a12"/><text x="360" y="515" fill="#fff" font-family="Arial,sans-serif" font-size="34" font-weight="700">THINK SMART</text><text x="415" y="550" fill="#00c6fb" font-family="Arial,sans-serif" font-size="18">TECHNOLOGY (PVT) LTD.</text></svg>