<svg width="64" height="64" viewBox="0 0 64 64" fill="none" xmlns="http://www.w3.org/2000/svg">
    <defs>
        <linearGradient id="capAI" x1="10" y1="10" x2="54" y2="54">
            <stop stop-color="#00C6FB"/>
            <stop offset="1" stop-color="#0A58CA"/>
        </linearGradient>
    </defs>

    <rect x="17" y="17" width="30" height="30" rx="9"
          fill="#0E2A47"
          stroke="url(#capAI)"
          stroke-width="2.5"/>

    <circle cx="27" cy="30" r="2.5" fill="#00C6FB"/>
    <circle cx="37" cy="30" r="2.5" fill="#00C6FB"/>

    <path d="M26 38C29 40.5 35 40.5 38 38"
          stroke="#00C6FB"
          stroke-width="2"
          stroke-linecap="round"/>

    <path d="M24 17V11M32 17V7M40 17V11"
          stroke="#00C6FB"
          stroke-width="2"
          stroke-linecap="round"/>

    <path d="M24 47V53M32 47V57M40 47V53"
          stroke="#00C6FB"
          stroke-width="2"
          stroke-linecap="round"/>

    <path d="M17 24H11M17 32H7M17 40H11"
          stroke="#00C6FB"
          stroke-width="2"
          stroke-linecap="round"/>

    <path d="M47 24H53M47 32H57M47 40H53"
          stroke="#00C6FB"
          stroke-width="2"
          stroke-linecap="round"/>

    <circle cx="32" cy="7" r="2" fill="#00C6FB"/>
    <circle cx="7" cy="32" r="2" fill="#00C6FB"/>
    <circle cx="57" cy="32" r="2" fill="#00C6FB"/>
</svg>