<svg width="64" height="64" viewBox="0 0 64 64" fill="none" xmlns="http://www.w3.org/2000/svg">
    <defs>
        <linearGradient id="cloudGradient" x1="9" y1="9" x2="55" y2="55" gradientUnits="userSpaceOnUse">
            <stop stop-color="#00C6FB"/>
            <stop offset="1" stop-color="#0A58CA"/>
        </linearGradient>
    </defs>

    <!-- Cloud -->
    <path d="M18 42H47C52 42 55 38.5 55 34
             C55 29.7 51.7 26.2 47.5 25.8
             C46.2 19.5 40.7 15 34.2 15
             C27.7 15 22.1 19.6 20.8 25.9
             C16.2 25.9 12.5 29.5 12.5 34
             C12.5 38.4 15 42 18 42Z"
          stroke="url(#cloudGradient)"
          stroke-width="2.8"
          stroke-linejoin="round"/>

    <!-- Shield -->
    <path d="M34 25L43 28.5V35
             C43 40.5 39.5 44.5 34 47
             C28.5 44.5 25 40.5 25 35V28.5L34 25Z"
          fill="#0E2A47"
          stroke="#00C6FB"
          stroke-width="2"/>

    <!-- Lock -->
    <rect x="30" y="34" width="8" height="7" rx="1.5"
          stroke="#00C6FB"
          stroke-width="1.8"/>

    <path d="M32 34V32.5C32 30.8 33 29.5 34 29.5
             C35 29.5 36 30.8 36 32.5V34"
          stroke="#00C6FB"
          stroke-width="1.8"
          stroke-linecap="round"/>

    <!-- Connection nodes -->
    <circle cx="9" cy="20" r="2"
            fill="#00C6FB"
            opacity="0.75"/>

    <circle cx="55" cy="17" r="2"
            fill="#00C6FB"
            opacity="0.75"/>

    <path d="M11 20L18 24M53 18L47 22"
          stroke="#00C6FB"
          stroke-width="1.5"
          stroke-linecap="round"
          opacity="0.55"/>
</svg>